<?xml version="1.0" encoding="utf-8"?>
<!-- Generator: Adobe Illustrator 22.1.0, SVG Export Plug-In . SVG Version: 6.00 Build 0)  -->
<svg version="1.1" id="Layer_1" xmlns="http://www.w3.org/2000/svg" xmlns:xlink="http://www.w3.org/1999/xlink" x="0px" y="0px"
	 viewBox="0 0 163.1 36.5" style="enable-background:new 0 0 163.1 36.5;" xml:space="preserve">
<style type="text/css">
	.st0{fill:#FFFFFF;}
</style>
<g>
	<path class="st0" d="M19,1.8c-3.9,0.4-7.8,1.9-11,4.8c-2.8,2.5-4.8,6.1-5.8,10.3C1,21.8,0,29.3,3.5,33.1c2.1,2.3,4.7,2.6,7.1,1
		c2.8-1.9,4.3-5.2,7.4-6.3c3.3-1.2,6.8-0.4,9.5,2.4c0,0,6.6,9.2,14,0.5C48.9,21.8,37.8,0,19,1.8z M20,17.7l-0.3,1.1
		c-0.2,0.8-1.1,1.3-1.9,1.1l-3.1-0.8L14,22.3c-0.2,0.8-1.1,1.3-1.9,1.1L11,23.1c-0.8-0.2-1.3-1.1-1.1-1.9l0.8-3.1l-3.1-0.8
		c-0.8-0.2-1.3-1.1-1.1-1.9l0.3-1.1c0.2-0.8,1.1-1.3,1.9-1.1l3.1,0.8l0.8-3.1c0.2-0.8,1.1-1.3,1.9-1.1l1.1,0.3
		c0.8,0.2,1.3,1.1,1.1,1.9L15.8,15l3.1,0.8C19.7,16,20.2,16.9,20,17.7z M29.3,18.4c0-1.3,1.1-2.4,2.4-2.4c1.3,0,2.4,1.1,2.4,2.4
		c0,1.3-1.1,2.4-2.4,2.4C30.3,20.8,29.3,19.7,29.3,18.4z M35.3,28.3c-1.3,0-2.4-1.1-2.4-2.4c0-1.3,1.1-2.4,2.4-2.4
		c1.3,0,2.4,1.1,2.4,2.4C37.7,27.2,36.6,28.3,35.3,28.3z"/>
	<g>
		<path class="st0" d="M58.2,21.4c0,0-0.3-0.1-0.8-0.2c-0.6-0.1-1-0.2-1.3-0.2c-0.8,0-1.5,0.2-2,0.7c-0.5,0.5-0.7,1.2-0.7,2
			c0,0.9,0.3,1.5,0.8,2c0.5,0.5,1.2,0.7,2.1,0.7c0.4,0,0.9-0.1,1.4-0.3s0.8-0.3,0.7-0.3c0.2,0,0.4,0.6,0.6,1.8
			c0.2,1.1,0.3,1.8,0.3,2.1c0,0.4-0.6,0.7-1.7,0.9c-0.9,0.2-1.6,0.3-2.2,0.3c-2,0-3.7-0.7-5.1-2.1c-1.3-1.4-2-3.1-2-5.1
			c0-2,0.7-3.7,2-5.1c1.3-1.4,3-2.1,5.1-2.1c1.4,0,2.6,0.3,3.7,0.9c0.2,0.1,0.4,0.3,0.4,0.4c0,0.1-0.1,0.7-0.4,1.6
			c-0.3,0.9-0.4,1.5-0.5,1.7C58.4,21.3,58.3,21.4,58.2,21.4z"/>
		<path class="st0" d="M74.8,20.5l0,9.6c0,0.3-0.1,0.5-0.4,0.5c-0.3,0-1,0.1-2,0.1c-1,0-1.7,0-2.1-0.1c-0.3-0.1-0.5-0.3-0.5-0.6
			c0-0.8,0-2,0-3.6s0-2.8,0-3.6c0-1.1-0.6-1.6-1.7-1.6c-0.4,0-0.8,0.1-1.3,0.4c-0.5,0.3-0.8,0.7-0.8,1v3.4c0,0.4,0,1.1,0,2
			c0,0.9,0,1.6,0,2c0,0.3-0.1,0.5-0.4,0.6s-1.1,0.1-2.4,0.1c-0.8,0-1.3,0-1.6-0.1c-0.3-0.1-0.5-0.2-0.5-0.5c0-0.7,0-1.8,0-3.3
			s0-2.6,0-3.3c0-3,0-5.6-0.1-7.5c0-0.7-0.1-1.4-0.1-2.1c0-0.8-0.1-1.5-0.3-2.1c0-0.1,0-0.2,0-0.3c0-0.1,0.1-0.2,0.2-0.3
			c0.3-0.1,0.7-0.1,1.3-0.2c0.7,0,1.2-0.1,1.3-0.1l2.5-0.3c0.1,0,0.2,0.1,0.2,0.3c0,0.3,0,0.7-0.1,1.2c0,0.6-0.1,1-0.1,1.2
			c-0.1,2.1-0.1,3.8-0.1,5c0,0.2,0,0.3,0.1,0.3c0,0,0.3-0.2,0.7-0.5c0.5-0.4,1.1-0.7,1.5-0.9c0.7-0.3,1.4-0.5,2.1-0.5
			c1.2,0,2.2,0.3,3,0.9C74.4,18.4,74.8,19.3,74.8,20.5z"/>
		<path class="st0" d="M82.2,24.2c0,0.7,0,1.7,0,3c0,1.3,0,2.3,0,3c0,0.2-0.1,0.3-0.3,0.3c-0.3,0.1-1,0.1-2.1,0.1
			c-1.1,0-1.8,0-2.1-0.1c-0.2,0-0.3-0.1-0.4-0.2c0,0,0-0.2,0-0.4c0-0.6,0-1.6,0-2.9c0-1.3,0-2.3,0-2.9c0-2.6-0.1-4.7-0.3-6.3
			c0-0.1,0-0.2,0-0.3c0-0.2,0.1-0.3,0.4-0.3c0.3,0,0.7,0,1.2,0.1c0.5,0.1,0.9,0.1,1.2,0.1c0.3,0,0.7,0,1.2-0.1s0.9-0.1,1.2-0.1
			c0.2,0,0.3,0.1,0.3,0.3c0,0,0,0.1,0,0.3C82.3,19.7,82.2,21.8,82.2,24.2z M82.6,13.9c0,1.6-0.9,2.4-2.7,2.4c-0.8,0-1.4-0.2-1.9-0.6
			c-0.6-0.4-0.8-1.1-0.8-1.8c0-0.7,0.3-1.3,0.9-1.8c0.5-0.4,1.2-0.6,1.9-0.6c0.7,0,1.4,0.2,1.9,0.7C82.3,12.5,82.6,13.1,82.6,13.9z"
			/>
		<path class="st0" d="M94.1,21.4c0,0-0.3-0.1-0.8-0.2c-0.6-0.1-1-0.2-1.3-0.2c-0.8,0-1.5,0.2-2,0.7c-0.5,0.5-0.7,1.2-0.7,2
			c0,0.9,0.3,1.5,0.8,2c0.5,0.5,1.2,0.7,2.1,0.7c0.4,0,0.9-0.1,1.4-0.3s0.8-0.3,0.7-0.3c0.2,0,0.4,0.6,0.6,1.8
			c0.2,1.1,0.3,1.8,0.3,2.1c0,0.4-0.6,0.7-1.7,0.9c-0.9,0.2-1.6,0.3-2.2,0.3c-2,0-3.7-0.7-5.1-2.1c-1.3-1.4-2-3.1-2-5.1
			c0-2,0.7-3.7,2-5.1c1.3-1.4,3-2.1,5.1-2.1c1.4,0,2.6,0.3,3.7,0.9c0.2,0.1,0.4,0.3,0.4,0.4c0,0.1-0.1,0.7-0.4,1.6
			c-0.3,0.9-0.4,1.5-0.5,1.7C94.3,21.3,94.2,21.4,94.1,21.4z"/>
		<path class="st0" d="M110.7,20.5l0,9.6c0,0.3-0.1,0.5-0.4,0.5c-0.3,0-1,0.1-2,0.1c-1,0-1.7,0-2.1-0.1c-0.3-0.1-0.5-0.3-0.5-0.6
			c0-0.8,0-2,0-3.6s0-2.8,0-3.6c0-1.1-0.6-1.6-1.7-1.6c-0.4,0-0.8,0.1-1.3,0.4c-0.5,0.3-0.8,0.7-0.8,1v3.4c0,0.4,0,1.1,0,2
			c0,0.9,0,1.6,0,2c0,0.3-0.1,0.5-0.4,0.6s-1.1,0.1-2.4,0.1c-0.8,0-1.3,0-1.6-0.1c-0.3-0.1-0.5-0.2-0.5-0.5c0-0.7,0-1.8,0-3.3
			s0-2.6,0-3.3c0-3,0-5.6-0.1-7.5c0-0.7-0.1-1.4-0.1-2.1c0-0.8-0.1-1.5-0.3-2.1c0-0.1,0-0.2,0-0.3c0-0.1,0.1-0.2,0.2-0.3
			c0.3-0.1,0.7-0.1,1.3-0.2c0.7,0,1.2-0.1,1.3-0.1l2.5-0.3c0.1,0,0.2,0.1,0.2,0.3c0,0.3,0,0.7-0.1,1.2c0,0.6-0.1,1-0.1,1.2
			c-0.1,2.1-0.1,3.8-0.1,5c0,0.2,0,0.3,0.1,0.3c0,0,0.3-0.2,0.7-0.5c0.5-0.4,1.1-0.7,1.5-0.9c0.7-0.3,1.4-0.5,2.1-0.5
			c1.2,0,2.2,0.3,3,0.9C110.3,18.4,110.7,19.3,110.7,20.5z"/>
		<path class="st0" d="M127,23.6c0,0.7,0,1.8,0.1,3.2c0.1,1.4,0.1,2.5,0.1,3.2c0,0.4-0.2,0.6-0.5,0.6c-1.2,0.1-2.5,0.1-4,0.1
			c-0.2,0-0.3-0.3-0.4-0.8c-0.1-0.5-0.1-0.8-0.2-0.8c-0.1,0-0.2,0.1-0.3,0.2c-1,1.1-2.2,1.6-3.3,1.6c-1.8,0-3.3-0.7-4.5-2.1
			c-1.1-1.3-1.7-2.9-1.7-4.8c0-2.1,0.6-3.9,1.7-5.2c1.2-1.4,2.9-2,5-2c1.5,0,2.6,0.5,3.5,1.5c0,0,0.1,0.1,0.1,0.1
			c0.1,0,0.2-0.2,0.3-0.7c0.1-0.5,0.2-0.7,0.4-0.7c0.3,0,1,0.1,2,0.3c0.9,0.2,1.6,0.3,2,0.5c0.1,0.1,0.2,0.1,0.2,0.2
			c0,0,0,0.1,0,0.3C127.1,20,127,21.8,127,23.6z M122.5,23.7c0-0.8-0.2-1.4-0.7-2c-0.5-0.5-1.1-0.8-1.9-0.8c-0.8,0-1.4,0.3-1.9,0.8
			c-0.5,0.5-0.7,1.2-0.7,2c0,0.8,0.3,1.4,0.8,1.9c0.5,0.5,1.2,0.8,1.9,0.8c0.8,0,1.4-0.3,1.9-0.8C122.2,25.2,122.5,24.5,122.5,23.7z
			"/>
		<path class="st0" d="M135.9,27.6c0,0.9-0.3,1.7-1,2.4c-0.6,0.7-1.4,1-2.3,1c-0.9,0-1.7-0.3-2.3-1c-0.6-0.7-0.9-1.4-0.9-2.3
			s0.3-1.7,0.9-2.3c0.6-0.7,1.4-1,2.3-1c0.9,0,1.7,0.3,2.3,1C135.5,25.9,135.9,26.6,135.9,27.6z"/>
		<path class="st0" d="M142.9,24.2c0,0.7,0,1.7,0,3c0,1.3,0,2.3,0,3c0,0.2-0.1,0.3-0.3,0.3c-0.3,0.1-1,0.1-2.1,0.1
			c-1.1,0-1.8,0-2.1-0.1c-0.2,0-0.3-0.1-0.4-0.2c0,0,0-0.2,0-0.4c0-0.6,0-1.6,0-2.9c0-1.3,0-2.3,0-2.9c0-2.6-0.1-4.7-0.3-6.3
			c0-0.1,0-0.2,0-0.3c0-0.2,0.1-0.3,0.4-0.3c0.3,0,0.7,0,1.2,0.1c0.5,0.1,0.9,0.1,1.2,0.1c0.3,0,0.7,0,1.2-0.1s0.9-0.1,1.2-0.1
			c0.2,0,0.3,0.1,0.3,0.3c0,0,0,0.1,0,0.3C143,19.7,142.9,21.8,142.9,24.2z M143.3,13.9c0,1.6-0.9,2.4-2.7,2.4
			c-0.8,0-1.4-0.2-1.9-0.6c-0.6-0.4-0.8-1.1-0.8-1.8c0-0.7,0.3-1.3,0.9-1.8c0.5-0.4,1.2-0.6,1.9-0.6c0.7,0,1.4,0.2,1.9,0.7
			C143,12.5,143.3,13.1,143.3,13.9z"/>
		<path class="st0" d="M159,23.8c0,2.1-0.6,3.8-1.9,5.2c-1.3,1.3-3,2-5.1,2c-2,0-3.7-0.7-5-2s-2-3-2-5c0-2.2,0.6-3.9,1.9-5.2
			c1.3-1.3,3-2,5.1-2c2.1,0,3.8,0.7,5.1,2S159,21.7,159,23.8z M154.5,23.8c0-0.7-0.2-1.4-0.7-1.9c-0.5-0.6-1-0.8-1.8-0.8
			c-0.7,0-1.3,0.3-1.8,0.9c-0.4,0.5-0.7,1.2-0.7,1.9c0,0.8,0.2,1.4,0.7,1.9c0.5,0.6,1.1,0.9,1.8,0.9c0.7,0,1.3-0.3,1.8-0.9
			C154.3,25.1,154.5,24.5,154.5,23.8z"/>
	</g>
</g>
<g>
</g>
<g>
</g>
<g>
</g>
<g>
</g>
<g>
</g>
</svg>
